{"title":"The Green Hornet 2011 TS READNFO XViD - IMAGiNE","uid":6109772,"size":1482705788,"categoryP":"video","categoryS":"movies","magnet":"?xt=urn:btih:0f965e462750e0e7a34b31f235fef1a6a2b73704&amp;dn=The+Green+Hornet+2011+TS+READNFO+XViD+-+IMAGiNE&amp;tr=udp%3A%2F%2Ftracker.openbittorrent.com%3A80&amp;tr=udp%3A%2F%2Fopen.demonii.com%3A1337&amp;tr=udp%3A%2F%2Ftracker.coppersurfer.tk%3A6969&amp;tr=udp%3A%2F%2Fexodus.desync.com%3A6969","seeders":1,"leechers":0,"uploader":"TvTeam","files":5,"time":1295304257,"description":". \n  &lt;a href=&quot;\nhttp://www.torrentday.com/&quot; rel=&quot;nofollow&quot; target=&quot;_NEW&quot;&gt;\nhttp://www.torrentday.com/&lt;/a&gt;        :     The Hottest Private Tracker On The Net!!!\n &lt;a href=&quot;\nhttp://www.torrentday.com&quot; rel=&quot;nofollow&quot; target=&quot;_NEW&quot;&gt;\nhttp://www.torrentday.com&lt;/a&gt;          :     Once &amp; For all ;)\n\n\n               www . TorrentDay . Com \n\n(((((((((((((= Enjoy No RAR releases =))))))))))))))))))))\n\n\n...................................NFO:....................................\n\n.      *********** ****    ****      ***      ******** *********** ****    *** **********\n           *+*     +*+*+* *+*+*+   *+* *+*   *+*    *+*    *+*     *+*+*   *+* *+*        \n           +*+     +*+ +*+*+ +*+  +*+   +*+  +*+           +*+     *+*+*+  +*+ +*+        \n           +$+     +$+  +*+  +$+ +$++*++$++* *$*           +$+     +$+ +*+ +$+ +$++*++$  \n           +$+     +$+       +$+ +$+     +$+ +$+   +$+$    +$+     +$+  +$+$+$ +$+        \n           $+$     $+$       $+$ $+$     $+$ $+$    $+$    $+$     $+$   $+$+$ $+$        \n       $$$$$$$$$$$ $$$       $$$ $$$     $$$  $$$$$$$$ $$$$$$$$$$$ $$$    $$$$ $$$$$$$$$$     \n                                                \n\n\n\n                           Another Fine Release Brought to you from - IMAGiNE                   \n                                                 \n\n********************************************************************************************************************                                \n                                 The Green Hornet 2011 TS XviD - IMAGiNE\n********************************************************************************************************************\n\nRipper ...........: IMAGiNE                                        IMDB Rating.......:6.8/10                             \nVideo Codec.......: XVID                                         Release Date......:14/01/11\nAudio Codec.......:MP3                                           Theatre Date......:14/01/11\nAudio Bitrate.....:128                                              Runtime.......:1h 51mn\nSubtitles.........:NIL                                                 Language..........:ENGLISH\nResolution...... 720 x 306                                      IMDb URL..........:http://www.imdb.com/title/tt0990407/\n\n\n[color=yellow]DETAILS:[/color]\n\nVideo\nFormat                           : MPEG-4 Visual\nFormat profile                   : Streaming Video@L1\nFormat settings, BVOP            : Yes\nFormat settings, QPel            : No\nFormat settings, GMC             : No warppoints\nFormat settings, Matrix          : Default\nMuxing mode                      : Packed bitstream\nCodec ID                         : XVID\nCodec ID/Hint                    : XviD\nDuration                         : 1h 51mn\nBit rate                         : 1 619 Kbps\nWidth                            : 720 pixels\nHeight                           : 306 pixels\nDisplay aspect ratio             : 2.35\nFrame rate                       : 25.000 fps\nResolution                       : 24 bits\nColorimetry                      : 4:2:0\nScan type                        : Progressive\nBits/(Pixel*Frame)               : 0.294\nStream size                      : 1.26 GiB (92%)\nWriting library                  : XviD 1.1.2 (UTC 2006-11-01)\n\nAudio\nFormat                           : MPEG Audio\nFormat version                   : Version 1\nFormat profile                   : Layer 3\nCodec ID                         : 55\nCodec ID/Hint                    : MP3\nDuration                         : 1h 51mn\nBit rate mode                    : Constant\nBit rate                         : 128 Kbps\nChannel(s)                       : 2 channels\nSampling rate                    : 44.1 KHz\nResolution                       : 16 bits\nStream size                      : 102 MiB (7%)\nAlignment                        : Split accross interleaves\nInterleave, duration             : 40 ms (1.00 video frame)\nInterleave, preload duration     : 500 ms\n\n\n\n\n\n[color=yellow]SOURCES:[/color]\n\nVIDEO: SERENiTY... Thanks\nAUDIO: A good Friend... Thanks\n\n[color=yellow]NOTES:[/color]\n\nIMAGiNE bringing you another release..........The Green Hornet 2011 \n\nWhat we did was use SERENiTY source and did our own encode from that. We just made a small script containing resize,white balance,rgb eq,sharpness,chroma,brightness,contrast ect.\nThen we cleaned up the audio removing noise and hiss ect.Then synced it to our encode.\n\nEnjoy ;)\n\n[color=yellow]SCREENS:[/color]\n\n\n[color=yellow]GREETS:[/color]\n\nFLAWL3SS,ViSiON,FUSiON,Rx,SecretMyth,BirdFlu,ELEKTRI4KA,SERENiTY and Autotron\nAnd to all the other p2p grps past and present \n\n\n[COLOR=RED]Looking for these,syncers,cammers,silver supplier,Audio.....Have anything to offer????......\nContact us &lt;a class=&quot;__cf_email__&quot; href=&quot;/cdn-cgi/l/email-protection&quot; data-cfemail=&quot;d6bfbbb7b1bfb8b3b1a4b9a3a696bea3a5bebbb7bfbaf8b5b9bb&quot;&gt;[email&amp;#160;protected]&lt;/a&gt;&lt;script cf-hash='f9e31' type=&quot;text/javascript&quot;&gt;\n/* &lt;![CDATA[ */!function(){try{var t=&quot;currentScript&quot;in document?document.currentScript:function(){for(var t=document.getElementsByTagName(&quot;script&quot;),e=t.length;e--;)if(t[e].getAttribute(&quot;cf-hash&quot;))return t[e]}();if(t&amp;&amp;t.previousSibling){var e,r,n,i,c=t.previousSibling,a=c.getAttribute(&quot;data-cfemail&quot;);if(a){for(e=&quot;&quot;,r=parseInt(a.substr(0,2),16),n=2;a.length-n;n+=2)i=parseInt(a.substr(n,2),16)^r,e+=String.fromCharCode(i);e=document.createTextNode(e),c.parentNode.replaceChild(e,c)}}}catch(u){}}();/* ]]&gt; */&lt;/script&gt;[/COLOR]","torrent":{"xt":"urn:btih:0f965e462750e0e7a34b31f235fef1a6a2b73704","amp;dn":"The+Green+Hornet+2011+TS+READNFO+XViD+-+IMAGiNE","amp;tr":["udp%3A%2F%2Ftracker.openbittorrent.com%3A80","udp%3A%2F%2Fopen.demonii.com%3A1337","udp%3A%2F%2Ftracker.coppersurfer.tk%3A6969","udp%3A%2F%2Fexodus.desync.com%3A6969"],"infoHash":"0f965e462750e0e7a34b31f235fef1a6a2b73704","infoHashBuffer":{"type":"Buffer","data":[15,150,94,70,39,80,224,231,163,75,49,242,53,254,241,166,162,183,55,4]},"announce":[],"urlList":[]}}